<svg id="Layer_1" data-name="Layer 1" xmlns="http://www.w3.org/2000/svg" width="278.24" height="138.9" viewBox="0 0 278.24 138.9">
  <title>slide3_right</title>
  <path d="M320.2,203.91h9.52a22.24,22.24,0,0,1,22.14-20.64h15a3.17,3.17,0,0,1,3.18,3.17v5.38h10.23V151.34a2.49,2.49,0,0,1,2.38-2.38H390a6,6,0,0,1,5.2-3.52,5.83,5.83,0,0,1,4.41,2,22.18,22.18,0,0,1,22-19.31h15a3.17,3.17,0,0,1,3.18,3.17v8.74h59v4.76h-59V158h40.48v4.76H449.93V186a2.49,2.49,0,0,1-2.39,2.38H402.22v17.73a2.49,2.49,0,0,1-2.39,2.38h-30V216H383a2.49,2.49,0,0,1,2.38,2.38v29.37h22.31a6,6,0,0,1,5.21-3.53,5.67,5.67,0,0,1,5.38,3.79c.17-.35,25-14.73,25-14.73a3,3,0,0,1,3.18,0A3.23,3.23,0,0,1,448,236v11.55h12.08v4.76H448.16v11.56a3.12,3.12,0,0,1-1.59,2.73,2.72,2.72,0,0,1-1.58.44,3.66,3.66,0,0,1-1.59-.44s-24.78-14.46-25-14.73a5.81,5.81,0,0,1-5.38,3.79,5.47,5.47,0,0,1-5.2-3.52H383.17a2.5,2.5,0,0,1-2.39-2.39v-29H370v5.38a3.17,3.17,0,0,1-3.18,3.17h-15a22.37,22.37,0,0,1-22.14-20.63H320.2Zm121.52,54.94V241.74l-14.64,8.55Zm-28.92-5.91a2.74,2.74,0,1,0-2.74-2.73A2.87,2.87,0,0,0,412.8,252.94ZM395.16,148.7a2.74,2.74,0,0,0,0,5.47,2.75,2.75,0,0,0,2.73-2.74A2.93,2.93,0,0,0,395.16,148.7Zm38.1-13.94H421.35a15.85,15.85,0,0,0-15.78,15.88v1.76a15.9,15.9,0,0,0,15.78,15.88h11.91Zm-35.81,69.15V186.18a2.49,2.49,0,0,1,2.38-2.38h45.33V162.9h-5.55v8.55a3.16,3.16,0,0,1-3.18,3.18h-15a22.11,22.11,0,0,1-22-19.32,6.08,6.08,0,0,1-4.41,2,5.47,5.47,0,0,1-5.2-3.53h-4.94v40.31a2.5,2.5,0,0,1-2.38,2.38h-12.7V204h27.51v-.08Zm-61.64,3.35a15.9,15.9,0,0,0,15.78,15.87H363.5V189.62H351.59a15.84,15.84,0,0,0-15.78,15.87Z" transform="translate(-230.95 -128.15)" fill="#f3f3f3"/>
  <rect y="75.76" width="92.6" height="4.76" fill="#f3f3f3"/>
  <rect x="272.24" y="11.38" width="6" height="6" fill="#f6726c"/>
  <rect x="244.02" y="61.47" width="6" height="6" fill="#f6726c"/>
  <rect x="234.41" y="119.06" width="6" height="6" fill="#f6726c"/>
  <rect x="244.29" y="29.9" width="5.29" height="26.46" fill="#f3f3f3"/>
</svg>
