<svg id="Layer_1" data-name="Layer 1" xmlns="http://www.w3.org/2000/svg" xmlns:xlink="http://www.w3.org/1999/xlink" width="158.6" height="166.6" viewBox="0 0 158.6 166.6">
  <title>slide2_right</title>
  <rect x="73.4" width="6.8" height="6.8" fill="#f6726c"/>
  <rect x="0.7" y="27.2" width="79.5" height="6.8" fill="#f3f3f3"/>
  <rect x="0.7" y="40.8" width="92.8" height="6.8" fill="#f3f3f3"/>
  <rect x="0.7" y="54.4" width="157.8" height="6.8" fill="#f3f3f3"/>
  <image width="145" height="8" transform="translate(0 67.3)" xlink:href="../../../../pics/linem/31607B86973250C7.png" style="isolation: isolate"/>
  <rect x="0.7" y="81.6" width="123.6" height="6.8" fill="#f3f3f3"/>
  <rect x="73.4" y="13.6" width="6.8" height="20.4" fill="#f3f3f3"/>
  <rect x="86.7" y="13.6" width="6.8" height="34" fill="#f3f3f3"/>
  <rect x="86.7" width="6.8" height="6.8" fill="#f6726c"/>
  <rect x="137.8" y="68" width="7.2" height="85.1" fill="#f3f3f3"/>
  <rect x="124.3" y="81.6" width="6.8" height="40.8" fill="#f3f3f3"/>
  <rect x="94.5" y="115.6" width="6.8" height="6.8" fill="#f6726c"/>
  <rect x="137.8" y="159.8" width="6.8" height="6.8" fill="#f6726c"/>
  <rect x="151.8" y="54.3" width="6.8" height="98.8" fill="#f3f3f3"/>
  <rect x="106.4" y="115.6" width="23.7" height="6.8" fill="#f3f3f3"/>
  <rect x="151.8" y="159.8" width="6.8" height="6.8" fill="#f6726c"/>
</svg>
